<mxfile host="app.diagrams.net" modified="2021-07-15T09:14:55.763Z" agent="5.0 (Windows NT 10.0; Win64; x64) AppleWebKit/537.36 (KHTML, like Gecko) Chrome/91.0.4472.124 Safari/537.36" etag="XFRoO63kV-_omRCAVEmi" version="14.8.6" type="github">
  <diagram id="XEkHLmezWZI4c1WCaYPN" name="Page-1">
    <mxGraphModel dx="898" dy="1536" grid="1" gridSize="10" guides="1" tooltips="1" connect="1" arrows="1" fold="1" page="1" pageScale="1" pageWidth="850" pageHeight="1100" math="0" shadow="0">
      <root>
        <mxCell id="0" />
        <mxCell id="1" parent="0" />
        <mxCell id="NAQCBL6RXrsDhcxio9aU-1" value="Amazon CloudWatch" style="outlineConnect=0;fontColor=#232F3E;gradientColor=none;strokeColor=#ffffff;fillColor=#232F3E;dashed=0;verticalLabelPosition=middle;verticalAlign=bottom;align=center;html=1;whiteSpace=wrap;fontSize=10;fontStyle=1;spacing=3;shape=mxgraph.aws4.productIcon;prIcon=mxgraph.aws4.cloudwatch;" vertex="1" parent="1">
          <mxGeometry x="10" y="170" width="80" height="110" as="geometry" />
        </mxCell>
        <mxCell id="NAQCBL6RXrsDhcxio9aU-3" value="AWS Lambda" style="outlineConnect=0;fontColor=#232F3E;gradientColor=none;strokeColor=#ffffff;fillColor=#232F3E;dashed=0;verticalLabelPosition=middle;verticalAlign=bottom;align=center;html=1;whiteSpace=wrap;fontSize=10;fontStyle=1;spacing=3;shape=mxgraph.aws4.productIcon;prIcon=mxgraph.aws4.lambda;" vertex="1" parent="1">
          <mxGeometry x="200" y="10" width="80" height="100" as="geometry" />
        </mxCell>
        <mxCell id="NAQCBL6RXrsDhcxio9aU-4" value="AWS Lambda" style="outlineConnect=0;fontColor=#232F3E;gradientColor=none;strokeColor=#ffffff;fillColor=#232F3E;dashed=0;verticalLabelPosition=middle;verticalAlign=bottom;align=center;html=1;whiteSpace=wrap;fontSize=10;fontStyle=1;spacing=3;shape=mxgraph.aws4.productIcon;prIcon=mxgraph.aws4.lambda;" vertex="1" parent="1">
          <mxGeometry x="200" y="370" width="80" height="100" as="geometry" />
        </mxCell>
        <mxCell id="NAQCBL6RXrsDhcxio9aU-5" value="Amazon DynamoDB" style="outlineConnect=0;fontColor=#232F3E;gradientColor=none;strokeColor=#ffffff;fillColor=#232F3E;dashed=0;verticalLabelPosition=middle;verticalAlign=bottom;align=center;html=1;whiteSpace=wrap;fontSize=10;fontStyle=1;spacing=3;shape=mxgraph.aws4.productIcon;prIcon=mxgraph.aws4.dynamodb;" vertex="1" parent="1">
          <mxGeometry x="200" y="190" width="80" height="110" as="geometry" />
        </mxCell>
        <mxCell id="NAQCBL6RXrsDhcxio9aU-10" value="Amazon SQS" style="outlineConnect=0;fontColor=#232F3E;gradientColor=none;strokeColor=#ffffff;fillColor=#232F3E;dashed=0;verticalLabelPosition=middle;verticalAlign=bottom;align=center;html=1;whiteSpace=wrap;fontSize=10;fontStyle=1;spacing=3;shape=mxgraph.aws4.productIcon;prIcon=mxgraph.aws4.sqs;" vertex="1" parent="1">
          <mxGeometry x="400" y="-120" width="80" height="100" as="geometry" />
        </mxCell>
        <mxCell id="NAQCBL6RXrsDhcxio9aU-12" value="Amazon SQS" style="outlineConnect=0;fontColor=#232F3E;gradientColor=none;strokeColor=#ffffff;fillColor=#232F3E;dashed=0;verticalLabelPosition=middle;verticalAlign=bottom;align=center;html=1;whiteSpace=wrap;fontSize=10;fontStyle=1;spacing=3;shape=mxgraph.aws4.productIcon;prIcon=mxgraph.aws4.sqs;" vertex="1" parent="1">
          <mxGeometry x="400" y="70" width="80" height="100" as="geometry" />
        </mxCell>
        <mxCell id="NAQCBL6RXrsDhcxio9aU-13" value="Amazon SQS" style="outlineConnect=0;fontColor=#232F3E;gradientColor=none;strokeColor=#ffffff;fillColor=#232F3E;dashed=0;verticalLabelPosition=middle;verticalAlign=bottom;align=center;html=1;whiteSpace=wrap;fontSize=10;fontStyle=1;spacing=3;shape=mxgraph.aws4.productIcon;prIcon=mxgraph.aws4.sqs;" vertex="1" parent="1">
          <mxGeometry x="400" y="280" width="80" height="100" as="geometry" />
        </mxCell>
        <mxCell id="NAQCBL6RXrsDhcxio9aU-14" value="Amazon SQS" style="outlineConnect=0;fontColor=#232F3E;gradientColor=none;strokeColor=#ffffff;fillColor=#232F3E;dashed=0;verticalLabelPosition=middle;verticalAlign=bottom;align=center;html=1;whiteSpace=wrap;fontSize=10;fontStyle=1;spacing=3;shape=mxgraph.aws4.productIcon;prIcon=mxgraph.aws4.sqs;" vertex="1" parent="1">
          <mxGeometry x="400" y="480" width="80" height="100" as="geometry" />
        </mxCell>
        <mxCell id="NAQCBL6RXrsDhcxio9aU-15" value="Amazon EC2" style="outlineConnect=0;fontColor=#232F3E;gradientColor=none;strokeColor=#ffffff;fillColor=#232F3E;dashed=0;verticalLabelPosition=middle;verticalAlign=bottom;align=center;html=1;whiteSpace=wrap;fontSize=10;fontStyle=1;spacing=3;shape=mxgraph.aws4.productIcon;prIcon=mxgraph.aws4.ec2;" vertex="1" parent="1">
          <mxGeometry x="730" y="270" width="80" height="100" as="geometry" />
        </mxCell>
        <mxCell id="NAQCBL6RXrsDhcxio9aU-16" value="" style="html=1;dashed=0;whitespace=wrap;fillColor=#2875E2;strokeColor=#ffffff;points=[[0.005,0.63,0],[0.1,0.2,0],[0.9,0.2,0],[0.5,0,0],[0.995,0.63,0],[0.72,0.99,0],[0.5,1,0],[0.28,0.99,0]];shape=mxgraph.kubernetes.icon;prIcon=api" vertex="1" parent="1">
          <mxGeometry x="1070" y="80" width="50" height="48" as="geometry" />
        </mxCell>
        <mxCell id="NAQCBL6RXrsDhcxio9aU-17" value="AWS Direct Connect" style="outlineConnect=0;fontColor=#232F3E;gradientColor=none;strokeColor=#ffffff;fillColor=#232F3E;dashed=0;verticalLabelPosition=middle;verticalAlign=bottom;align=center;html=1;whiteSpace=wrap;fontSize=10;fontStyle=1;spacing=3;shape=mxgraph.aws4.productIcon;prIcon=mxgraph.aws4.direct_connect;" vertex="1" parent="1">
          <mxGeometry x="740" y="50" width="80" height="110" as="geometry" />
        </mxCell>
        <mxCell id="NAQCBL6RXrsDhcxio9aU-19" value="" style="shape=image;verticalLabelPosition=bottom;labelBackgroundColor=#ffffff;verticalAlign=top;aspect=fixed;imageAspect=0;image=data:image/png,iVBORw0KGgoAAAANSUhEUgAAANIAAACwCAYAAAB6pTATAAAgAElEQVR4Ae3dd7RdRfUH8Mg//qHLvuy9ImIXe0EsCNhBwSgKaShFqQoCIRBCChAglJAAgVCFUEIEEogJBAnFKMUCicASlSgoKhawO7/1GX/jury8c9/Lfefde999+6x11rn3lCnf2d/Ze/aZM3tMii0QCASGjMCYIacQCQQCgUAKIoUQBAI1IBBEqgHESCIQCCKFDAQCNSAQRKoBxEgiEAgihQwEAjUgEESqAcRIIhAIIoUMBAI1IBBEqgHESCIQCCKFDAQCNSAQRKoBxEgiEAgihQwEAjUgEESqAcRIIhAIIoUMBAI1IBBEqgHESCIQCCKFDAQCNSAQRKoBxEgiEAgihQwEAjUgEESqAcRIIhAIIoUMBAI1IBBEqgHESCIQCCKFDAQCNSAQRKoBxEgiEAgihQwEAjUgEESqAcRIIhAIIoUMBAI1IBBEqgHESCIQCCKFDAQCNSAQRKoBxEgiEAgihQwEAjUgEESqAcRIIhAIIoUMBAI1IBBEqgHESCIQCCKFDAQCNSAQRKoBxEgiEAgihQwEAjUgEESqAcRIIhAIIoUMBAI1IBBEqgHESCIQCCKFDAQCNSAQRKoBxEgiEAgihQwEAjUgMCgi/etf/0p//OMf07p169LNN9+cVqxYkZYuXRp7YNDVMrB8+fJ0/fXXpzvuuCP9+te/Tv/4xz/Sf/7znxpos2ESlUSS6cMPP5zuvffedMstt6Qrr7wyLViwIB133HFp2rRpacqUKemwww5rursn9sCgEzJANqdOnZpmzZqV5s6dmy6++OJMqjvvvDM9+OCD6W9/+1v697//vSEjWjxTSaTf/e536aabbspE2WqrrdKmm26attlmmzR+/Ph0wAEHpEMPPbQpiQYiWVxv3gkFPkPH58ADD0x77rln2mGHHdIWW2yRNt9887TbbrulRYsWpfXr16e///3vLdJmw8c2IBITbs2aNenYY49NkyZNSvvss0+aPHly1kQXXnhhWrZsWWb2jTfemImGbLEHBt0oAzfccEMehixevDjNmzcva6hvfOMbaY899kj77bdftrJ+8YtfbMiKFs48hkh/+MMf0ve///00c+bMtP3226ftttsuzZkzJxPrT3/6U62qsIWyxiOBQMsIPProo+m+++5LF110UdZKW265Zdp3333TkiVL0gMPPJDHTy0nnlJ6DJFWr16dxzTvfve7s+nm/0MPPfQ/e3K4BmpDqUA8GwgMBgHjoX/+85/pL3/5S/rxj3+cFi5cmLbeeus0ceLExNL6/e9/P5hkKu/JRHrkkUfS2rVr01FHHZXGjh2bj6tWrUrGSTx2sQUCvYTAn//85+yBPu2007KZt+uuu6aVK1em3/zmNy1XMxPpV7/6VTrzzDOTBMeNG5d++MMfJqZcbIFAryLAK80lPnv27LTtttum6dOnp+9973stVzcTiZ/94x//eLYZv/3tb2cS1ekabLl08WAgMEwIGKYw9fgEONY++tGPpjPOOKPl3MbwWhiAfeQjH0knn3xy+uUvf5kzaDnFeDAQGEEIGL5cd9112UV+5JFHph/84ActlX6MN7/GRl/84hfTVVdd1VIi8VAgMJIRoEy4w7nGKZNWtjHnnHNOHnCZsXD77be3kkY8EwiMaARopfPOOy9985vfTF/60pdaqssY9uGOO+6Y/enMutgCgdGGAJc4R8MhhxyS3v72t7dU/TEHH3xwHh/deuut4alrCcJ4aKQjwIPHc23a23Of+9yWqjPGFKD3ve99+a0vL0ZsgcBoQ4CH2iRW8xsf//jHt1T9MV/96leTmQz333//sE0xb6lk8VAg0CYEuMJNPECkTTbZpKVcx+y1117pXe96V1ZtLaUQDwUCIxwBRLIj0uMe97iWahNEagm2eKiXEAgi9VJrRl06hkAQqWPQR8a9hEAQqZdaM+rSMQSCSB2DPjLuJQSCSL3UmlGXjiEQROoY9JFxLyEQROql1oy6dAyBIFLHoI+MewmBIFIvtWbUpWMIBJE6Bn1k3EsIBJF6qTWjLh1DIIjUMegj415CIIjUS60ZdekYAkGkjkEfGfcSAkGkXmrNqEvHEAgidQz6yLiXEAgi9VJrRl06hkAQqWPQR8a9hEAQqZdaM+rSMQSCSB2DPjLuJQSCSL3UmlGXjiEQROoY9JFxLyHQcSJZmdUKlfaI7Pdf0bJqp2jZArXBJbbhR0AAcQucWna4lQB5HSeSCoh6ZrcQeWwpk+e3v/1tjnooyG9sw4+AdevPOuusHFHiRz/60UZn2BEiiSWzfPnyHCrQKq3iKtktfXz88cfn0DCio4/W7ac//Wlu0F122SVdfPHFOVq2huqFzWLzOgl1vPPOO9Nf//rXrqjW0qVL0/7775/DsqxYsWKjy9RWIgERQS699NK0995754jQ733ve/Nyx+985zvTFltskc9NmzYt3XzzzRnk0Rg+U/zdk046KX3wgx9MCxYsyGZerxCJ1SGGlijg4moNNRL4Rkt8xQOLFi1Kn//853MM5Msvv7zirurTbSXSww8/nG644Yb0uc99Lm222WZp8uTJadmyZTk6tHDrc+fOzeEDn/3sZ6fDDz981IbQJGziTN14442J9i6NVN2MI+fKQw89lLXs1772tfTlL38517MbSt8VRPrYxz42qEX0f/aznyUxNj/0oQ/leEribhobUe+PPPJIuuuuu9KJJ56YnvGMZ6Ttt98+Ay4Mux6aFrvkkkvSZZddls4999x0xBFHZLLNmzcvISGSDrTJ75RTTkmLFy9OZ599dg6gKzDU6aefnoXWeI3DQ/Q1BJcXgAXYPeGEE/Iz8rnvvvvSd77znZwWwtsvuOCCXH51ISxXXHFFmjNnTk5HeWfNmpU7DlHdVq9enZgPosDDQ5S3888/Pz/PubB+/fp83bVVq1ZljWQQrEzSYQIfdNBBqbHu8oXvNddck0Mvfv3rX08zZ87Mdfj5z3+e8UVQ9v+3vvWtNHXq1ByqUdmVSVj7viF5tAlslyxZkhYuXJjzdxTmVEwsY4rbbrstPfroo5nsRduIJ6ycyqg9YcUSufvuu3OsYRHt3vSmN6XNN988l0E6V155ZcaZKbtmzZpcXvmvW7cup+E8cxA+tJgxjbSvvfba7BzQJjDVGQs/KX/y8pOf/CTnrW6eY8IZPsCSRtRG5EL7Nmok+dx7771Z7uQjiBiTtGornd2QFtF/61vfOiCRZCTyOdJttdVWOfo5gWvcCDEhe+1rX5vTo7EINRIZS02YMCEdeOCBOSraTjvtlN7//venT3ziE9n8AfhAm8iC8hbPad99903jx49P22yzTZIWYiofohBIArbbbrtlVT9u3Lg8hiM8rlH9GkuP+tnPfjaXYeedd84CSoPcc889uZwidCCD54wBxZDSWIJRCRMqDc+/5S1vyeESCan8NT6BUD9kIwAaHuG22267tOWWW+Y8PU/DI4EOyfMactKkSfm+T3/607muSI1MvFKEaOLEibkdBM9mHSijcjO9GzfYi1DPDIfz9OnTcxk8IyqdshNAAobIBB3G7je+E+XePQgFW23rfvV6wQtekJ73vOfle6ZMmZLrC+899tgjC7c0dSjaXsigXXfdNXcK8NHh6ty0nY5R2XVW5EW+W2+9dfrMZz6T644EgiMrH7K5h7zqaORFBnSC6laI5L+6zJ8/P+25555Z7uCvM6va2kYkYx2myqtf/eoMnkLSAI2bwhAiYBB4Df7ggw/mnoOGetvb3pYFVK+iJySQH/jAB7KQXn311Y1J9fubIL70pS/NwnPaaadlISRkX/jCFzK4hFcj6TmZHu94xzvSm9/85pwnDabH0zPtvvvu6T3veU9uZKHhaS7/DzjggOxEoUGR/sUvfnEuI2HUcyKr+17zmtdkgeNwoUE0lsZHRsKjbjNmzEgve9nLsuAjpkYfO3ZsFmRCqZy0BQLBUbkIN9LrvYupDEvlWrlyZe7pdVI77LBDxrSkoby0Sd/xKGE2lhH2/uUvf3nu5WkXPThy6BiM45QPSWkimkZHpa2lC3NtSevASjmVB4kRTfDutWvX5jrTIkKoqiehRwCYIRzh17mprzLoCJVLRwMvZNNJH3300bmuziPmG97whkxe9Ss4Pv3pT8/PIrC2gwOrpBBJZ0A+ySqs1IscNns9UwuRVH6g+EgaSY/0ile8In3yk5/MwPbnrweqnp75V4hEiOUBeABpNMKjcYAOQIDoQQkmU6TsGp13yHsZ2uxVr3pVFgLnS69HaPVuhJXA641oQOnqCQmhRkByeSI1oWUWMJP08pwlTBYNQGA8Jy8mG21JMJiJ8mHSKKd6SFevSdMQLr0rwWA+ISLNZbykx3QPoWTSffe7383akelL2zDP3A/bU089NZOJoCirPPWyzLptt902azRERxImkp4WPoShcYOP+n3qU5/KgkyA3Ss/9VIe2lSb3XTTTVkbIioy0xAEUFvqPJjQ119/fTaX1IWmIrgIrw4EFSYwhCUM4UW7Ioxz6sLc4oAhC6KIK4f7EB1xkE9a2tx95A2x/dd+X/nKV7I2RDjlgTdZgp/0ybEOQvowouVZIQO9z6uFSIMJNCajW265JffwGoCKp6YbN/dobKaWHhpQGhORaA0NBOyy6ekJv3s1mgbWmzBvyi5Uu56fvY1IGhoBAFs2QiZ9ppDxUyESc4zZU0xQZDC2IIzA9pug6zWZO0yaRiK97nWvywJvfKCuhJ/JQfiQi92ufgSBsDLZ1KEvkZh2NC7NJV/CoPdm9mhkYwr1ftaznpWFTpnshJcg6lWNFxDXfepKOOGLdDoKdexr2hUi6cRgLC8bwdMRIYMeX49OsxM8GhxupQw0u/xgREshoo6n9P4E2UZQdRiEHm7qpiMgKzoVpiWvLgyZyn4jChnQnuK2slCYcDptx9JxI6cOkiaHnQ6OHMG1bNoAeRDyiU98YiabOiD6YLa2EglJNAqXt56Kbd+4UZ1sfh49vTOACOBgiaQhPEP4y06wmWTNiKTX1fiEnCarIhJBYmMTQg3MHNAASKxn1Dh6eODTSIMlElNM3rRwf0QiGARNj6qsCMvMJcTGCrQxx8Izn/nMrKGVR7loHL/VieZDXHjCmJAgP1Izj53r++5uY4hk3KjOzGFkkL9dedWvkKiKSARR+yM67VM6LB0fEugEX//61+dy63RodWkyFWfPnp2JpG1o1oIXLUkjMZl1pgMRiTaX39Oe9rT0nOc8J3dEOv/BbG0jksIQdO9H9G7UvQYmOHoPNqyeldo3EKWmAcgjNBgiabTi4aPemQZ2wqcnJkQaA7AEEbBMAOTQ8334wx/OwHl/VUUk9xNOmotpR0gQx/1l3EJgabuNJZLeXRn6IxJNwWwlhMZvTBKeO2aIMQgtijDPf/7zc0dF+5TyILX3NsYWyKjzolld15szZ4wFmDbON24bQyQCTfg33XTTrDlpDiYfLIyVlBtRzdQwFtWhwtF1nZyyIQBNRFvRzoRah6oNjWnJjf9kx/NwVy/1Z9YaDyIPTeMZjghjYmMy7UJzNtNI0tRJ0qA0ufEf7YewZKvZ1lYiGRMRbkIADKYFgDQoMLyILSAC28AbAQZLpGYVdQ2RXvjCF+YG1IMjArBpA6AhCWGqIhKyE0zOhje+8Y1Z63mGR0f5CY8GrJtItAg3OCeLneZTF2M4vbB8dUKEj3miY0Am5ha3Mo1sbEGIDe7hrcyu0cS0Eo06FCLprHRmcGGaa1fplzIwV5FYh6Bs8iUDLAZ1Y+oiU3EwMFNf+cpXZlLqgHV8OleOBxaN9tOxkQ+dgk6IlaBj0a7HHHNM1kS0G/NV2yFzMyIVc9P9OnljS8RiIiuXdqja2kokPQ7Vq+E1Nk+MXvSpT31q3gHHnjdm0YNQ9QrYjEjF46URB9oIH5VN4JhG7GF56/mMtQBNO1YRSfldZ04hHlPqKU95Sn7vpYERjOBoWOO5vqYd86lxjKR+en2mTzONhAS0qPEHs8Oup2WKIAmB0ukYDzLT2Pjq5T6YKhcC0bYE4yUvecn/0lFGZra6a5vGbWM0EhLo8eXFBHvyk5+c8/ByHdY6LB0M/OTF66cc3hkac+o4jdOQjan6ohe9KLvJPaccOjBmH5yZpDoTHTP5UH9tIh111yZPetKTMkY6GtpSvnAcDJHkryzGpcgFa+OvZmZeW4lUGglYTCLmCFNP76IHMXhUeD2jHqRseiseI6ZeGZy65j6kJLxAGmhrNO04O4Bv4OvFHCHXMIRbzyNdQqon0gg2YCGT8uixStkN/HnSDNqZihpBWdWPOUbICCkzhAAgDjOnEFPZnacpmBAER748X0hZNJJyKi+89OS0SjHZmEcEmWZ0D+1eMFUuWLnXWEaP6xrBbKy78jRuzGodGm0A4+JlVRfEVWZ1ZEp5VjkN8JVb2pwEcNYxqgdtBF/pEG55IwpzznX5wVpZpQGPQj55MBF1qmRB/sU5UsjpfnWXr/rx8MIRnvLlJGEWKw8tp13Kpp5FxrShtOFFBnjumHf+V20dIVJjYRAGwCrZt0dsvK+O34hE+3BIMMGYBfJvJV8NQ3g1sPJLC5jDucmj5Eno+ttKufTSMPW/b7kInmsEupW695dv4zlpSluHqWMoQtZ4j9/IR2CVsY5NOnCRr/q1o01KuUsdhzSzYTDu75Jh3yMwy963wfveO9T/fYkkP3m3km8BrrHsraSzMXVqzLMqr3IPoSp163uv/43l3pgyDObekn6zMkinlLVv+QaTR3/3lPQGyre/Z4d6ruTdMSINtQIb87wBNQ+OQTDVHlsgUBcCo4pIzDk2L2cC1R9bIFAXAqOKSGxmA0xHpk1sgUBdCIwqItUFWqQTCPRFIIjUF5H43y8CBvA8nLyB3NNc9vfec0/X79zaxsPD7VkNIvUrNnGyLwLcysaW316yJM054YQ0c8aMNP2oo7p6P2ratGQ/4/TT03XXXpvHxQR+OLYg0nCg2mNp0kR69gt9MmK2++GHp8mHHpoOPeSQEbEj/Gnz56fvXn99+tX69cPSOkGkYYG1txJlzpn5QQuNFPL0LefUI45I8+fNy5+oDEfrBJGGA9UeS9N4iEnHTOoroCPp/2GTJ+fvqIajeYJIw4Fqj6XJrLt88eIRTySkv3blymFpnSDSsMDaW4kGkQZuzyDSwBiN+juCSAOLQBBpYIxG/R1VRDrm6KPzpwrGT0uvuqpyv+zSS/PnFL6gNU7htDh74cLK+0ta37rggnTySSelw6dMyWMz3jefXOQPHJvk5/l5p57a73guTLtRL86dA6CKSKfOnZu+s3x5/gbLd1dVu++kfEfkOyqksGqSxVOq7i/nffWLTEdOnZpJwfUuLd8FlXuqjr7L6s8REkTqnByN+pyriLTgjDPyV7e+OTLzoWr3fdCiiy5KNJh3UAjow86q+8t5X9I2OjkQkCu+XG92XH7NNUGkUS+5XQZAFZHKV8Gm4PgKtWq/5+678xevs2bOzEQ66cQT8xfIVfeX8/kr6gsvTNOOPPK/Gun44/PsinK92dEXzKGRukyQRntxqoh03OzZ6YLzz8+f1XthW7X7JP2Uk0/OhJhy2GF5NVSfqFfdX877LN5LVFoMKYytLEVQrjc7+sw8iDTaJbfL6l9FJNOEEIOgmzlQtbvOyVAEuzxXdX85bzzV97mB8irP+lK15Nd4jDFSlwnXaCpOFZF40ZhpC886K517zjmVu7EUsw4xkIipxhvX7BnXaKNjjzkmkxUZeP2kNdBzrnNMNBKo/A4ijSbJ7bK6VhHJLPBLL7kk3XLzzem2W2+t3K3IhBSmGNFgs489NjsRmj3j2jVXX51XlqJlEOHoWbPyKkADPef6eeeeG0TqMjka9cWpIpLlzKxs6rN9qwFV7Q8+8EC66MILH+O1s0xW1f3lvM82uLHLHL8T58zJru9yvdkRCYsWajx2tUaycqqwGlbbjE+4e493VUQ6c8GCvD6dJcKabdb5u3jRokwk2sXL0ttvu63ZI/maybJLLr88r1OHDMxInrrBbN5vNRKo/B5OInHHG5ttsskmgyniBveMsfSw4FH9rda5wd1xYsQhUEUkq6PyyLmuE63aLTpjJgOvW34hO2dOnjxadX85b2VTXsHyQpaX0Iqr5Xqzo9kUhTyNx+EiEhJ5n2Zl1yc84QkttfEYD1t32eqZzdZHbin1eKjjCFQRicnF3DrrzDPTOWefXbn3dTYgBmdDs2dco7m8xC2eO9rM164DPec60jUSqPweLiJZFNMqwJY2tr58K9sYK5dawd+7Acu9xtZbCFQRieMAKWgaXrmqfcb06f/z2BFoxOC5q7q/nEfU8g6pPMdTWK43OxYHRSFQOQ4XkawsKxiA6BWss1a2MRawF4qQe5JWiq23EKgiEkHnueN0oJWqdp95F7OO+xv5iiaresb5uaeckj11jRpJWs2eKdd4Bgt5Go/DRSTToKypLjiAlYdb2cYgj0XTS8S7VhKJZ7oXgSoiMbMsmm/9c+uJV+3WSbDeA/c1DYMga/4/QkTVM86boGq2d/HasXyMi5o9U64JMNBIoPJ7uIhkZSUxlQR5FhyglW0MT4plgMWoEZtTtAauydh6A4EqIoXX7r/tawa6SBjCc5rhztvYyjbGQ8JviAkkZqh5TlRdkKkVOLvvmSoieckqfM36++/P68ZZO66/nWB5QWpMQyNxNJgn19+9jee4yI27y6TVE44/PnuGG++p+k2wixZqPNapkbzqsUyZcDCCkQkMLshZq1smEq0kho5IbKLG+ZYkPHitQtpdz1URiWfs/PPOy4JkoF21L1u6NJPH2ChPWp01Kwtc1f3l/OLLLsueu+JwMM7y0V653uzIU9hIoPK7TiLx1Jn57t2RUKglmFqrrZeJZE1t9qt3CzSTSHrsWx9hWWs7tpGLQBWReMa4p70oNbu7aje2oVU4DTgbEMMcuqr7y3kBo3npPIMI3kFxbpTrzY5IV8jTeKyLSALFCeMq8qSQnKKc+D8U5ZGJVMRErFCR7ESe9qJWkF8v0bzdZur5tj22kYVAFZEINkFHCtqpakc2pCveN1qJS7zq/nKeKUiLFSJ5TlrlerNjMQcbSeT3UIjkpavFMjkWfO4ucLhQreLWejE91AgnjyES7SOj008/PUeh3myzzXJGPi2WUUwhGlkkUtoqIiGQmd9XXnFFnmBqflt/u69caRKkQCbawkvT/u5tPGd+Hq2DsEhAcM29a7yn6rfxW18SDZVIpkKZvcPqEqhZDGIvYIXFZOYNVbYfQyTAy9CEQxG/qb599tknTZw4MQf9nTFjRn7v4N2TD7d8yRh7d2PAnYsINEKjcPpk3CfdnAliulbtHFEbTBHipGjyjGteq4j3euT/fyFLA5luNNBzrguo3FjW8luZN0beRGAXz5Z5ynzbZZdd8rCFFmJ5KeNg5/8N1IVuQKTyAHvx9ttvzwxGJBG1FYRnT0EM0hAt9u7GoIxtijCW40h0f5vOtjHyxhuHQMZBzDjvSo844ohsylk/ok7PdCWRqDqmnpdk3JTeL3FL+tafmlYhZIq9uzEoY5RCoHIckUQ69NCNkjfaUKR0mpEn2msdk1OLKVfnmL+SSEUzORqoMfl49hBKOHjfpMTe/RhwX5vFUNzQhUicAfPnz88rBJltXbVbUotZVhwOHBTSq7q/nGcOendUTMpp06bl2eDlerOjd1WlnI1Hzq+NkTkWFXPSHFIzOCiGOsnTyJFBEanxgfg9shCocjYw+ZCLh8w0nqq9vD8qms3Rc1X3l/OIV0iEDJ6TVrne7FgcFI0k8nsoXrvhbrUg0nAj3OH0q4hEqE0ONYA3mbRq53mjhZACGRDEmgpV95fzJrby8BW3OfKZp1euNzua19eXREGkDgvSaM++ikjMJ2PeH95xR1q3dm3l/v01a/KiJeVzCiTyHqbZM66tuu667O3zVQEScLeb7DrQc67zGAeRRrvkdln9q4g0Ep0NYdp1mXCNpuIEkdrT2jFGag/OHculikg8cSatrlixIsdnFaO1v/3qZcvyDAVOCeMk4xffJ/V3b+M5sxh8bl68hcZLPIiN91T9pi3DtOuYyETG/SFQRSQCzgVu1oOJq1U7F3bjpFUeNWSqur+c58jgmSvePs8ZX5XrzY7GY0Gk/lozznUMgSoiFUEl6APt5d5yHOj+cr3cX47l/EDHcn/fY4yROiZGkXEVkczEtkaC79B82l21+67oMZNWZ87Mk1ar7i/nmX88g+WdEBe6tJiK5Z6q43BMWh1uSYgx0nAj3OH0q4hksY8SaMx3Z1X72rVrM3H6Bhqrur+c5zbPgcZKWJeGQGPlnqpjuwON1dFEQaQ6UOziNKqItGDBgmQRR9/omFdZtZsd3TfQmPW5q+4v53O+VlqdNi2Pd0qgsXK92XF5m1daraP5gkh1oNjFaVQRiUdt5cqV+XNrZKnafcMjQkRZs4GTwML6VfeX8wKNebFaPtLjaPB5Trne7OhTib7jI/9jjNTFgtbrRasi0sa4v0/uE2gMQapc1+V8uL97XbJGWf2qiMRzZh4cZ0Czvcyxa9QQrT4nrWZ5lWtlfl5jnqGRRpngdlt1q4jUV0hHwv8w7bpNukZReYJI7WnscDa0B+eO5RJEag/0QaT24NyxXIJI7YE+iNQenDuWSxCpPdAHkdqDc8dyCSK1B/ogUntw7lguQaT2QB9Eag/OHcsliNQe6INI7cG5Y7kEkdoDfRCpPTh3LJcgUnugDyK1B+eO5RJEag/0QaT24NyxXIJI7YE+iNQenDuWy0/XrUuXXHzx/z5nGAlz6vqW8ZCDD04HHXhgji7YMSAHyDiINABAI/2yta/FgDXz+psHHdTvdz59Bbeb/hcS7b333nkVom5tjyBSt7ZMTeWy6Lylgvffb790wP77jzgiIf9+++6bQ7L6xqlbtyBSt7ZMTeUSSIxpJy7wuF13TRMnTBhR+4Tx49OECRPSHrvvnoM51wRL7ckEkWqHtITT0dQAAAC2SURBVLsSFM5EZDoBtiZNmpTGjh2bdtxxxxGz77zzzmmvvfZKgjtbUKVbtyBSt7ZMTeUSDwiZrBhk3YXx48alz+2004ghEhJZOEVQ8KEGTK4J0n6TCSL1C0tvnRShztJXhHH16tVp1apVSYDtkbBb6WjtXXcloVjrDFVZdwsHkepGNNIblQgEkUZls0el60YgiFQ3opHeqEQgiDQqmz0qXTcCQaS6EY30RiUCQaRR2exR6boR+D8jHE5pEowKMQAAAABJRU5ErkJggg==;" vertex="1" parent="1">
          <mxGeometry x="850" y="26" width="210" height="176" as="geometry" />
        </mxCell>
        <mxCell id="NAQCBL6RXrsDhcxio9aU-20" value="" style="endArrow=classic;html=1;" edge="1" parent="1" source="NAQCBL6RXrsDhcxio9aU-1" target="NAQCBL6RXrsDhcxio9aU-3">
          <mxGeometry width="50" height="50" relative="1" as="geometry">
            <mxPoint x="140" y="150" as="sourcePoint" />
            <mxPoint x="150" y="90" as="targetPoint" />
          </mxGeometry>
        </mxCell>
        <mxCell id="NAQCBL6RXrsDhcxio9aU-21" value="" style="endArrow=classic;html=1;" edge="1" parent="1" target="NAQCBL6RXrsDhcxio9aU-4">
          <mxGeometry width="50" height="50" relative="1" as="geometry">
            <mxPoint x="90" y="230" as="sourcePoint" />
            <mxPoint x="200" y="360" as="targetPoint" />
          </mxGeometry>
        </mxCell>
        <mxCell id="NAQCBL6RXrsDhcxio9aU-22" value="Trigger Stop" style="text;html=1;align=center;verticalAlign=middle;resizable=0;points=[];autosize=1;strokeColor=none;" vertex="1" parent="1">
          <mxGeometry x="80" y="120" width="80" height="20" as="geometry" />
        </mxCell>
        <mxCell id="NAQCBL6RXrsDhcxio9aU-23" value="Trigger Start" style="text;html=1;align=center;verticalAlign=middle;resizable=0;points=[];autosize=1;strokeColor=none;" vertex="1" parent="1">
          <mxGeometry x="60" y="310" width="80" height="20" as="geometry" />
        </mxCell>
        <mxCell id="NAQCBL6RXrsDhcxio9aU-24" value="" style="endArrow=classic;startArrow=classic;html=1;" edge="1" parent="1" source="NAQCBL6RXrsDhcxio9aU-5" target="NAQCBL6RXrsDhcxio9aU-3">
          <mxGeometry width="50" height="50" relative="1" as="geometry">
            <mxPoint x="220" y="178" as="sourcePoint" />
            <mxPoint x="245" y="120" as="targetPoint" />
          </mxGeometry>
        </mxCell>
        <mxCell id="NAQCBL6RXrsDhcxio9aU-25" value="Fetch VM Details" style="text;html=1;align=center;verticalAlign=middle;resizable=0;points=[];autosize=1;strokeColor=none;" vertex="1" parent="1">
          <mxGeometry x="215" y="130" width="110" height="20" as="geometry" />
        </mxCell>
        <mxCell id="NAQCBL6RXrsDhcxio9aU-26" value="" style="endArrow=classic;startArrow=classic;html=1;" edge="1" parent="1">
          <mxGeometry width="50" height="50" relative="1" as="geometry">
            <mxPoint x="239.5" y="370" as="sourcePoint" />
            <mxPoint x="239.5" y="290" as="targetPoint" />
          </mxGeometry>
        </mxCell>
        <mxCell id="NAQCBL6RXrsDhcxio9aU-27" value="Fetch VM Details" style="text;html=1;align=center;verticalAlign=middle;resizable=0;points=[];autosize=1;strokeColor=none;" vertex="1" parent="1">
          <mxGeometry x="185" y="310" width="110" height="20" as="geometry" />
        </mxCell>
        <mxCell id="NAQCBL6RXrsDhcxio9aU-28" value="" style="endArrow=classic;html=1;" edge="1" parent="1">
          <mxGeometry width="50" height="50" relative="1" as="geometry">
            <mxPoint x="280" y="70" as="sourcePoint" />
            <mxPoint x="400" y="110" as="targetPoint" />
          </mxGeometry>
        </mxCell>
        <mxCell id="NAQCBL6RXrsDhcxio9aU-29" value="Cloud VM Stop Queue" style="text;html=1;align=center;verticalAlign=middle;resizable=0;points=[];autosize=1;strokeColor=none;" vertex="1" parent="1">
          <mxGeometry x="360" y="40" width="140" height="20" as="geometry" />
        </mxCell>
        <mxCell id="NAQCBL6RXrsDhcxio9aU-30" value="Cloud VM Start Queue" style="text;html=1;align=center;verticalAlign=middle;resizable=0;points=[];autosize=1;strokeColor=none;" vertex="1" parent="1">
          <mxGeometry x="370" y="380" width="140" height="20" as="geometry" />
        </mxCell>
        <mxCell id="NAQCBL6RXrsDhcxio9aU-31" value="" style="endArrow=classic;html=1;" edge="1" parent="1" target="NAQCBL6RXrsDhcxio9aU-13">
          <mxGeometry width="50" height="50" relative="1" as="geometry">
            <mxPoint x="300" y="400" as="sourcePoint" />
            <mxPoint x="350" y="350" as="targetPoint" />
            <Array as="points">
              <mxPoint x="280" y="410" />
              <mxPoint x="300" y="400" />
            </Array>
          </mxGeometry>
        </mxCell>
        <mxCell id="NAQCBL6RXrsDhcxio9aU-32" value="" style="endArrow=classic;html=1;" edge="1" parent="1" source="NAQCBL6RXrsDhcxio9aU-12" target="NAQCBL6RXrsDhcxio9aU-38">
          <mxGeometry width="50" height="50" relative="1" as="geometry">
            <mxPoint x="470" y="165" as="sourcePoint" />
            <mxPoint x="590" y="140" as="targetPoint" />
            <Array as="points">
              <mxPoint x="540" y="130" />
            </Array>
          </mxGeometry>
        </mxCell>
        <mxCell id="NAQCBL6RXrsDhcxio9aU-33" value="" style="endArrow=classic;html=1;" edge="1" parent="1" source="NAQCBL6RXrsDhcxio9aU-13" target="NAQCBL6RXrsDhcxio9aU-37">
          <mxGeometry width="50" height="50" relative="1" as="geometry">
            <mxPoint x="500" y="330" as="sourcePoint" />
            <mxPoint x="580" y="280" as="targetPoint" />
            <Array as="points">
              <mxPoint x="530" y="340" />
            </Array>
          </mxGeometry>
        </mxCell>
        <mxCell id="NAQCBL6RXrsDhcxio9aU-34" value="Add EC2 &lt;br&gt;Ids to Queue" style="text;html=1;align=center;verticalAlign=middle;resizable=0;points=[];autosize=1;strokeColor=none;" vertex="1" parent="1">
          <mxGeometry x="280" y="50" width="80" height="30" as="geometry" />
        </mxCell>
        <mxCell id="NAQCBL6RXrsDhcxio9aU-35" value="Add EC2 &lt;br&gt;Ids to Queue" style="text;html=1;align=center;verticalAlign=middle;resizable=0;points=[];autosize=1;strokeColor=none;" vertex="1" parent="1">
          <mxGeometry x="290" y="340" width="80" height="30" as="geometry" />
        </mxCell>
        <mxCell id="NAQCBL6RXrsDhcxio9aU-36" value="Triggers" style="text;html=1;align=center;verticalAlign=middle;resizable=0;points=[];autosize=1;strokeColor=none;" vertex="1" parent="1">
          <mxGeometry x="510" y="100" width="60" height="20" as="geometry" />
        </mxCell>
        <mxCell id="NAQCBL6RXrsDhcxio9aU-37" value="AWS Lambda" style="outlineConnect=0;fontColor=#232F3E;gradientColor=none;strokeColor=#ffffff;fillColor=#232F3E;dashed=0;verticalLabelPosition=middle;verticalAlign=bottom;align=center;html=1;whiteSpace=wrap;fontSize=10;fontStyle=1;spacing=3;shape=mxgraph.aws4.productIcon;prIcon=mxgraph.aws4.lambda;" vertex="1" parent="1">
          <mxGeometry x="590" y="330" width="80" height="100" as="geometry" />
        </mxCell>
        <mxCell id="NAQCBL6RXrsDhcxio9aU-38" value="AWS Lambda" style="outlineConnect=0;fontColor=#232F3E;gradientColor=none;strokeColor=#ffffff;fillColor=#232F3E;dashed=0;verticalLabelPosition=middle;verticalAlign=bottom;align=center;html=1;whiteSpace=wrap;fontSize=10;fontStyle=1;spacing=3;shape=mxgraph.aws4.productIcon;prIcon=mxgraph.aws4.lambda;" vertex="1" parent="1">
          <mxGeometry x="600" y="128" width="70" height="82" as="geometry" />
        </mxCell>
        <mxCell id="NAQCBL6RXrsDhcxio9aU-39" value="Triggers" style="text;html=1;align=center;verticalAlign=middle;resizable=0;points=[];autosize=1;strokeColor=none;" vertex="1" parent="1">
          <mxGeometry x="500" y="300" width="60" height="20" as="geometry" />
        </mxCell>
        <mxCell id="NAQCBL6RXrsDhcxio9aU-40" value="" style="endArrow=classic;html=1;" edge="1" parent="1" source="NAQCBL6RXrsDhcxio9aU-38" target="NAQCBL6RXrsDhcxio9aU-15">
          <mxGeometry width="50" height="50" relative="1" as="geometry">
            <mxPoint x="560" y="290" as="sourcePoint" />
            <mxPoint x="610" y="240" as="targetPoint" />
          </mxGeometry>
        </mxCell>
        <mxCell id="NAQCBL6RXrsDhcxio9aU-41" value="stop" style="text;html=1;align=center;verticalAlign=middle;resizable=0;points=[];autosize=1;strokeColor=none;" vertex="1" parent="1">
          <mxGeometry x="690" y="210" width="40" height="20" as="geometry" />
        </mxCell>
        <mxCell id="NAQCBL6RXrsDhcxio9aU-43" value="" style="endArrow=classic;html=1;" edge="1" parent="1">
          <mxGeometry width="50" height="50" relative="1" as="geometry">
            <mxPoint x="680" y="400" as="sourcePoint" />
            <mxPoint x="750" y="365" as="targetPoint" />
            <Array as="points">
              <mxPoint x="710" y="380" />
            </Array>
          </mxGeometry>
        </mxCell>
        <mxCell id="NAQCBL6RXrsDhcxio9aU-44" value="start" style="text;html=1;align=center;verticalAlign=middle;resizable=0;points=[];autosize=1;strokeColor=none;" vertex="1" parent="1">
          <mxGeometry x="690" y="380" width="40" height="20" as="geometry" />
        </mxCell>
        <mxCell id="NAQCBL6RXrsDhcxio9aU-45" value="" style="endArrow=classic;html=1;exitX=1;exitY=0.8;exitDx=0;exitDy=0;exitPerimeter=0;" edge="1" parent="1" source="NAQCBL6RXrsDhcxio9aU-4" target="NAQCBL6RXrsDhcxio9aU-14">
          <mxGeometry width="50" height="50" relative="1" as="geometry">
            <mxPoint x="290" y="450" as="sourcePoint" />
            <mxPoint x="340" y="420" as="targetPoint" />
          </mxGeometry>
        </mxCell>
        <mxCell id="NAQCBL6RXrsDhcxio9aU-46" value="OnPremise VM start Queue" style="text;html=1;align=center;verticalAlign=middle;resizable=0;points=[];autosize=1;strokeColor=none;" vertex="1" parent="1">
          <mxGeometry x="370" y="590" width="160" height="20" as="geometry" />
        </mxCell>
        <mxCell id="NAQCBL6RXrsDhcxio9aU-47" value="OnPremise VM stop Queue" style="text;html=1;align=center;verticalAlign=middle;resizable=0;points=[];autosize=1;strokeColor=none;" vertex="1" parent="1">
          <mxGeometry x="370" y="-160" width="160" height="20" as="geometry" />
        </mxCell>
      </root>
    </mxGraphModel>
  </diagram>
</mxfile>
